<svg id="Слой_2" data-name="Слой 2" xmlns="http://www.w3.org/2000/svg" viewBox="0 0 510.11 509.92"><defs><style>.cls-1,.cls-2{fill:#e2e2e2;}.cls-2{stroke:#636363;stroke-linecap:round;stroke-linejoin:round;stroke-width:10px;}</style></defs><circle class="cls-1" cx="255.05" cy="255.05" r="255.05"/><line class="cls-2" x1="171.82" y1="203.96" x2="171.82" y2="298.17"/><line class="cls-2" x1="198.36" y1="203.96" x2="198.36" y2="298.17"/><line class="cls-2" x1="224.9" y1="203.96" x2="224.9" y2="298.17"/><line class="cls-2" x1="251.44" y1="203.96" x2="251.44" y2="298.17"/><line class="cls-2" x1="277.98" y1="203.96" x2="277.98" y2="298.17"/><line class="cls-2" x1="304.53" y1="203.96" x2="304.53" y2="298.17"/><line class="cls-2" x1="331.07" y1="203.96" x2="331.07" y2="298.17"/><line class="cls-2" x1="357.61" y1="203.96" x2="357.61" y2="298.17"/><path class="cls-2" d="M370.09,342.2l.57.89V298.17H158.76V354.7H352.94c.22-3,1.8-5.7,4.76-5.35a4.2,4.2,0,0,1,1.25.19,25.69,25.69,0,0,1,3.36.81C359.65,344.08,366.06,336.21,370.09,342.2Z"/><line class="cls-2" x1="160.6" y1="203.96" x2="368.83" y2="203.96"/><line class="cls-2" x1="151.8" y1="194.9" x2="377.63" y2="194.9"/><polygon class="cls-2" points="369.54 194.9 355.61 171.51 175.21 171.51 159.88 194.9 369.54 194.9"/><polyline class="cls-2" points="264.71 164.17 296.06 195.61 233.37 195.61 264.71 164.17"/><path class="cls-2" d="M55.4,123.59l56.6,12s7.91,1.53,18.89-4.59,91.32-47.75,91.32-47.75,11.19-5.74,22.55-5.62,71.75,0,71.75,0,9.06-1.27,8.81,6.13S324,96,316.38,102.4s-73.4,5-73.4,5-9.66,3.09-19.41,13.4l-3.32,3.51"/><path class="cls-2" d="M163.32,157.8,232,141.46S245.91,139,248,151s-10,16.34-10,16.34L174.81,193s-10,6.13-53.49.64l-43.54-5.49L55.4,185.63"/><path class="cls-2" d="M439.4,400l-56.59-12s-7.92-1.54-18.9,4.59-91.32,47.75-91.32,47.75S261.4,446,250,445.91s-71.74,0-71.74,0-9.07,1.27-8.81-6.13,1.27-12.26,8.93-18.64,73.41-5,73.41-5,9.66-3.1,19.4-13.4l3.32-3.52"/><path class="cls-2" d="M331.49,365.74l-68.68,16.34s-13.92,2.43-16-9.57,10-16.34,10-16.34L320,330.51s10-6.13,53.49-.64L417,335.36l22.38,2.55"/></svg>